<?xml version="1.0" standalone="no"?>
<!DOCTYPE svg PUBLIC "-//W3C//DTD SVG 20010904//EN"
 "http://www.w3.org/TR/2001/REC-SVG-20010904/DTD/svg10.dtd">
<svg version="1.0" xmlns="http://www.w3.org/2000/svg"
 width="812.000000pt" height="125.000000pt" viewBox="0 0 812.000000 125.000000"
 preserveAspectRatio="xMidYMid meet">
<metadata>
Created by potrace 1.15, written by Peter Selinger 2001-2017
</metadata>
<g transform="translate(0.000000,125.000000) scale(0.100000,-0.100000)"
fill="#000000" stroke="none">
<path d="M5434 871 c-90 -41 -144 -123 -152 -232 -9 -123 41 -215 146 -266 49
-24 69 -28 138 -27 94 0 163 22 194 61 18 23 20 41 20 149 l0 124 -125 0 -125
0 0 -60 c0 -65 12 -80 64 -80 19 0 26 -5 26 -19 0 -23 -19 -31 -69 -31 -74 0
-117 61 -109 152 4 42 11 57 37 80 39 35 91 37 178 6 l62 -22 25 24 c38 35 35
82 -6 113 -49 36 -92 47 -182 47 -57 0 -93 -6 -122 -19z"/>
<path d="M3210 615 l0 -265 58 0 c92 0 96 7 100 145 l4 117 47 -53 47 -52 44
53 45 52 5 -117 c6 -133 13 -145 85 -145 74 0 75 2 75 283 l0 247 -54 0 c-63
0 -85 -14 -156 -104 l-44 -55 -30 37 c-17 20 -49 56 -72 80 -39 40 -45 42 -98
42 l-56 0 0 -265z"/>
<path d="M3847 668 c-54 -117 -97 -226 -97 -241 0 -68 97 -104 139 -51 11 14
23 34 26 45 6 16 16 19 81 19 72 0 75 -1 85 -27 17 -46 39 -63 79 -63 46 0 80
33 80 78 0 44 -163 400 -196 430 -17 14 -38 22 -63 22 l-38 0 -96 -212z"/>
<path d="M4270 615 l0 -265 58 0 c87 0 96 10 102 121 l5 93 74 -90 c98 -118
105 -124 156 -124 75 0 75 1 75 284 l0 248 -65 -4 c-36 -2 -71 -10 -77 -16 -8
-8 -15 -51 -18 -107 l-5 -95 -70 86 c-100 123 -115 134 -181 134 l-54 0 0
-265z"/>
<path d="M4867 668 c-54 -117 -97 -226 -97 -241 0 -68 97 -104 139 -51 11 14
23 34 26 45 6 16 16 19 81 19 72 0 75 -1 85 -27 17 -46 39 -63 79 -63 46 0 80
33 80 78 0 44 -163 400 -196 430 -17 14 -38 22 -63 22 l-38 0 -96 -212z"/>
<path d="M5810 615 l0 -265 149 0 c169 0 168 0 178 79 l6 51 -87 0 -86 0 0 35
0 35 59 0 c75 0 91 14 91 81 l0 49 -75 0 -75 0 0 35 0 35 69 0 c81 0 89 7 98
79 l6 51 -167 0 -166 0 0 -265z"/>
<path d="M6170 615 l0 -265 58 0 c92 0 96 7 100 145 l4 117 47 -53 47 -52 44
53 45 52 5 -117 c6 -133 13 -145 85 -145 74 0 75 2 75 283 l0 247 -54 0 c-63
0 -85 -14 -156 -104 l-44 -55 -30 37 c-17 20 -49 56 -72 80 -39 40 -45 42 -98
42 l-56 0 0 -265z"/>
<path d="M6720 615 l0 -265 149 0 c169 0 168 0 178 79 l6 51 -87 0 -86 0 0 35
0 35 59 0 c75 0 91 14 91 81 l0 49 -75 0 -75 0 0 35 0 35 69 0 c81 0 89 7 98
79 l6 51 -167 0 -166 0 0 -265z"/>
<path d="M7080 615 l0 -265 58 0 c87 0 96 10 102 121 l5 93 74 -90 c98 -118
105 -124 156 -124 75 0 75 1 75 284 l0 248 -65 -4 c-36 -2 -71 -10 -77 -16 -8
-8 -15 -51 -18 -107 l-5 -95 -70 86 c-100 123 -115 134 -181 134 l-54 0 0
-265z"/>
<path d="M7580 831 c0 -66 16 -81 86 -81 l54 0 0 -200 0 -200 64 0 c95 0 96 3
96 222 l0 178 54 0 c65 0 86 16 86 65 0 60 -18 65 -242 65 l-198 0 0 -49z"/>
<path d="M2980 160 c-45 -45 -11 -120 55 -120 44 0 75 29 75 70 0 41 -31 70
-75 70 -22 0 -43 -8 -55 -20z"/>
<path d="M4727 162 c-23 -25 -22 -85 1 -105 45 -41 132 -6 132 53 0 60 -93 97
-133 52z"/>
<path d="M5320 110 l0 -70 45 0 c54 0 85 25 85 70 0 45 -31 70 -85 70 l-45 0
0 -70z"/>
<path d="M6590 158 c-26 -28 -26 -72 0 -98 26 -26 90 -27 113 -2 23 25 22 85
-1 105 -27 25 -87 22 -112 -5z"/>
</g>
</svg>
